<svg width="41" height="35" viewBox="0 0 41 35" fill="none" xmlns="http://www.w3.org/2000/svg">
<path d="M28.3857 2C31.0052 2 33.5374 2.93694 35.4922 4.63672L35.875 4.98633L35.8848 4.99609L36.2471 5.36621C38.0078 7.25698 38.9999 9.7255 39 12.3057C39 15.058 37.8713 17.6837 35.8848 19.6162L35.8779 19.6221L23.0596 31.9795L23.0527 31.9863L23.0518 31.9854C22.7076 32.3139 22.3041 32.5706 21.8652 32.7432C21.4328 32.9132 20.9727 32.999 20.5098 32.999L20.5107 33C20.5072 33 20.5036 32.999 20.5 32.999C20.4964 32.999 20.4928 33 20.4893 33V32.999C20.0266 32.9989 19.5668 32.9131 19.1348 32.7432C18.6958 32.5705 18.2915 32.314 17.9473 31.9854L17.9404 31.9795L5.12207 19.6221L5.11523 19.6162C3.12867 17.6837 2 15.058 2 12.3057C2.00008 9.55354 3.12886 6.92851 5.11523 4.99609L5.125 4.98633L5.50781 4.63672C7.46261 2.93694 9.99477 2 12.6143 2L13.1367 2.0127C15.5685 2.12857 17.8953 3.05045 19.7197 4.63672L20.1035 4.98633L20.1055 4.98828L20.5 5.36816L20.8945 4.98828L20.8965 4.98633L21.2803 4.63672C23.235 2.93716 25.7665 2.00005 28.3857 2Z" stroke="black" stroke-width="4"/>
</svg>
