<svg width="39" height="39" viewBox="0 0 39 39" fill="none" xmlns="http://www.w3.org/2000/svg">
<path d="M14.8213 1.65625C18.3955 1.65631 21.4207 2.85162 23.9248 5.24707L24.165 5.48242C26.7137 8.03622 27.9854 11.1456 27.9854 14.8408C27.9853 16.1443 27.8043 17.3778 27.4443 18.5439L27.2793 19.04C26.8059 20.3606 26.1662 21.522 25.3623 22.5283L25.083 22.8779L25.3994 23.1934L37.2246 35.0361C37.5132 35.3253 37.6562 35.6705 37.6562 36.1035C37.6562 36.4714 37.5403 36.7983 37.2881 37.0977L37.1719 37.2236C36.8893 37.5066 36.5301 37.6562 36.0537 37.6562C35.6372 37.6562 35.3103 37.5422 35.0459 37.3242L34.9365 37.2236L23.1631 25.4346L22.8467 25.1172L22.4971 25.3975C21.6178 26.1019 20.6201 26.6806 19.501 27.1318L19.0137 27.3174C17.7049 27.7878 16.3086 28.0244 14.8213 28.0244C11.2472 28.0244 8.22242 26.8297 5.71973 24.4346L5.47949 24.1992C2.92934 21.6454 1.65633 18.5359 1.65625 14.8408C1.65625 11.2611 2.85098 8.23133 5.24414 5.72363L5.47949 5.48242C8.02823 2.93009 11.1319 1.65625 14.8213 1.65625ZM14.8213 4.86719C12.2345 4.86719 9.99678 5.72145 8.13281 7.42383L7.76562 7.77539H7.76465C5.83121 9.71307 4.86035 12.0785 4.86035 14.8408C4.86043 17.4305 5.71422 19.6706 7.41406 21.5371L7.76465 21.9053H7.76562C9.70057 23.8415 12.0622 24.8145 14.8213 24.8145C17.4079 24.8144 19.6449 23.9591 21.5088 22.2568L21.877 21.9053C23.8103 19.9677 24.7812 17.603 24.7812 14.8408C24.7812 12.251 23.9284 10.0101 22.2285 8.14355L21.877 7.77539C19.9421 5.83922 17.5803 4.86725 14.8213 4.86719Z" fill="#07272E" stroke="black"/>
</svg>
