<svg width="42" height="37" viewBox="0 0 42 37" fill="none" xmlns="http://www.w3.org/2000/svg">
<path d="M40.7447 9.10804C40.3603 8.55305 39.7292 8.22211 39.055 8.22211H10.9621L8.59005 2.5283C7.94873 0.990764 6.46052 0 4.79555 0H0V4.11106H4.79555L14.547 27.5132C14.8656 28.2779 15.6138 28.7774 16.4442 28.7774H32.8884C33.7456 28.7774 34.5123 28.245 34.8145 27.4454L40.9811 11.0012C41.2174 10.3681 41.1291 9.66098 40.7447 9.10804ZM31.464 24.6663H17.8153L12.6764 12.3332H36.0889L31.464 24.6663Z" fill="#07272E"/>
<path d="M17.4722 36.9999C19.1751 36.9999 20.5555 35.6195 20.5555 33.9166C20.5555 32.2138 19.1751 30.8333 17.4722 30.8333C15.7694 30.8333 14.3889 32.2138 14.3889 33.9166C14.3889 35.6195 15.7694 36.9999 17.4722 36.9999Z" fill="#07272E"/>
<path d="M31.8604 36.9999C33.5632 36.9999 34.9437 35.6195 34.9437 33.9166C34.9437 32.2138 33.5632 30.8333 31.8604 30.8333C30.1575 30.8333 28.7771 32.2138 28.7771 33.9166C28.7771 35.6195 30.1575 36.9999 31.8604 36.9999Z" fill="#07272E"/>
</svg>
